# xmcd
#
# Track frame offsets:
#	150
#	7595
#	20632
#	31985
#	44960
#	56985
#	69337
#	82450
#	93260
#	108152
#	120030
#	133502
#	147255
#	160475
#	172845
#	184580
#	194410
#	209197
#	221780
#	236667
#	248632
#	258445
#	270760
#	280835
#	291960
#
# Disc length: 4049 seconds
#
# Revision: 1
# Processed by: cddbd v1.5.2PL0 Copyright (c) Steve Scherf et al.
# Submitted via: audiograbber 1.83.01
#
DISCID=700fcf19
DTITLE=The Easy Riders - Marianne Vol. 6
DYEAR=1900
DGENRE=Blues
TTITLE0=Three Jolly Rogues Of Lynne
TTITLE1=Charmin' Bells
TTITLE2=Nine Hundred Miles
TTITLE3=Greensleeves
TTITLE4=John Hardy
TTITLE5=Green Grow The Lilacs
TTITLE6=Fond Affection (Rich Dehr)
TTITLE7=Box Of Rosewood (Rich Dehr)
TTITLE8=Fond Affection
TTITLE9=The Man You Don't Meet Ev'ry Day
TTITLE10=Lonesome Rider
TTITLE11=Tom Jack
TTITLE12=Wait By The Willow
TTITLE13=Golden Minute
TTITLE14=Mackerel Fleet
TTITLE15=Sparrow Grass And Brown Bread
TTITLE16=Man About Town
TTITLE17=Gypsy Davey
TTITLE18=Wait By The Willow
TTITLE19=Tall Timber
TTITLE20=Come Home Zelda
TTITLE21=Ride Away Vaquero
TTITLE22=Quit Kicking My Dog Around
TTITLE23=The Man Of The Sky
TTITLE24=Christopher Columbus
EXTD=
EXTT0=
EXTT1=
EXTT2=
EXTT3=
EXTT4=
EXTT5=
EXTT6=
EXTT7=
EXTT8=
EXTT9=
EXTT10=
EXTT11=
EXTT12=
EXTT13=
EXTT14=
EXTT15=
EXTT16=
EXTT17=
EXTT18=
EXTT19=
EXTT20=
EXTT21=
EXTT22=
EXTT23=
EXTT24=
PLAYORDER=
